<svg width="502.36253662109374px" height="122px" xmlns="http://www.w3.org/2000/svg" viewBox="-1.1812683105468693 14 502.36253662109374 122" style="background: rgba(0, 0, 0, 0);" preserveAspectRatio="xMidYMid"><defs><linearGradient id="editing-sticker-gradient" x1="0.5" y1="0.2" x2="0.5" y2="0.8"><stop offset="0" stop-color="#fd9"></stop><stop offset="1" stop-color="#e399ff"></stop></linearGradient><filter id="editing-sticker" x="-100%" y="-100%" width="300%" height="300%"><feMorphology operator="erode" radius="1" in="SourceAlpha" result="alpha-erode"></feMorphology><feConvolveMatrix order="3,3" divisor="1" kernelMatrix="0 1 0 1 1 1 0 1 0" in="alpha-erode" result="alpha-round"></feConvolveMatrix><feMorphology operator="dilate" radius="3.5" in="alpha-round" result="dilate-shadow"></feMorphology><feGaussianBlur in="dilate-shadow" stdDeviation="1.5" result="shadow"></feGaussianBlur><feFlood flood-color="#fff" result="flood-sticker"></feFlood><feComposite operator="in" in="flood-sticker" in2="alpha-round" result="comp-sticker"></feComposite><feMorphology operator="dilate" radius="3" in="comp-sticker" result="morph-sticker"></feMorphology><feConvolveMatrix order="3,3" divisor="1" kernelMatrix="0 1 0 1 1 1 0 1 0" in="morph-sticker" result="sticker"></feConvolveMatrix><feMerge><feMergeNode in="shadow"></feMergeNode><feMergeNode in="sticker"></feMergeNode><feMergeNode in="SourceGraphic"></feMergeNode></feMerge></filter></defs><g filter="url(#editing-sticker)"><g transform="translate(72.33497679233551, 104.47000122070312)"><path d="M34.50-13.25L34.50-13.25L34.50-13.25Q36.16-12.03 36.16-9.44L36.16-9.44L36.16-9.44Q36.16-6.85 35.04-5.02L35.04-5.02L35.04-5.02Q33.92-3.20 31.74-1.79L31.74-1.79L31.74-1.79Q27.07 1.22 18.91 1.22L18.91 1.22L18.91 1.22Q10.75 1.22 6.30-3.04L6.30-3.04L6.30-3.04Q1.86-7.30 1.86-14.85L1.86-14.85L1.86-14.85Q1.86-25.54 7.42-33.66L7.42-33.66L7.42-33.66Q11.65-39.68 19.20-42.24L19.20-42.24L19.20-42.24Q23.10-43.52 26.94-43.52L26.94-43.52L26.94-43.52Q30.78-43.52 33.15-43.01L33.15-43.01L33.15-43.01Q35.52-42.50 37.31-41.47L37.31-41.47L37.31-41.47Q41.22-39.23 41.22-35.65L41.22-35.65L41.22-35.65Q41.22-32.38 38.14-29.95L38.14-29.95L38.14-29.95Q35.33-27.78 33.02-27.78L33.02-27.78L33.02-27.78Q30.72-27.78 29.76-28.10L29.76-28.10L29.76-28.10Q30.02-30.40 30.02-31.90L30.02-31.90L30.02-31.90Q30.02-33.41 29.95-34.50L29.95-34.50L29.95-34.50Q29.89-35.58 29.57-36.61L29.57-36.61L29.57-36.61Q28.93-38.98 26.98-38.98L26.98-38.98L26.98-38.98Q25.02-38.98 23.07-37.15L23.07-37.15L23.07-37.15Q21.12-35.33 19.46-32.26L19.46-32.26L19.46-32.26Q15.68-25.28 15.68-17.02L15.68-17.02L15.68-17.02Q15.68-13.06 17.92-10.78L17.92-10.78L17.92-10.78Q20.16-8.51 24.96-8.51L24.96-8.51L24.96-8.51Q28.54-8.51 31.94-10.88L31.94-10.88L31.94-10.88Q33.41-11.90 34.50-13.25ZM44.26-1.92L44.26-1.92L44.26-1.92Q42.75-3.58 42.08-6.21L42.08-6.21L42.08-6.21Q41.41-8.83 41.41-13.12L41.41-13.12L41.41-13.12Q41.41-17.41 42.88-21.31L42.88-21.31L42.88-21.31Q44.35-25.22 47.04-28.03L47.04-28.03L47.04-28.03Q52.54-33.92 61.63-33.92L61.63-33.92L61.63-33.92Q64.90-33.92 67.26-32.83L67.26-32.83L78.21-33.92L73.47-8.96L73.47-8.96Q73.28-8.19 73.28-6.78L73.28-6.78L73.28-6.78Q73.28-5.38 74.14-4.48L74.14-4.48L74.14-4.48Q75.01-3.58 76.29-3.46L76.29-3.46L76.29-3.46Q75.65-1.28 73.31 0L73.31 0L73.31 0Q70.98 1.28 68.35 1.28L68.35 1.28L68.35 1.28Q65.73 1.28 63.97 0.29L63.97 0.29L63.97 0.29Q62.21-0.70 61.70-2.37L61.70-2.37L61.70-2.37Q60.67-0.77 58.50 0.26L58.50 0.26L58.50 0.26Q56.32 1.28 53.41 1.28L53.41 1.28L53.41 1.28Q50.50 1.28 48.13 0.51L48.13 0.51L48.13 0.51Q45.76-0.26 44.26-1.92ZM57.76-27.90L57.76-27.90L57.76-27.90Q57.02-26.75 56.38-24.80L56.38-24.80L56.38-24.80Q55.74-22.85 54.69-17.63L54.69-17.63L54.69-17.63Q53.63-12.42 53.63-8.70L53.63-8.70L53.63-8.70Q53.63-4.99 54.21-3.90L54.21-3.90L54.21-3.90Q54.78-2.82 55.81-2.82L55.81-2.82L55.81-2.82Q57.86-2.82 59.36-4.77L59.36-4.77L59.36-4.77Q60.86-6.72 61.44-10.18L61.44-10.18L64.83-28.93L64.83-28.93Q63.49-30.08 61.92-30.08L61.92-30.08L61.92-30.08Q60.35-30.08 59.42-29.57L59.42-29.57L59.42-29.57Q58.50-29.06 57.76-27.90ZM82.69-6.40L82.69-6.40L82.69-6.40Q82.69-8.13 83.58-12.48L83.58-12.48L86.98-29.76L83.20-29.76L83.46-31.68L83.46-31.68Q91.14-33.98 98.56-39.62L98.56-39.62L101.63-39.62L100.10-32.64L105.09-32.64L104.51-29.76L99.58-29.76L96.32-12.48L96.32-12.48Q95.49-8.51 95.49-7.17L95.49-7.17L95.49-7.17Q95.49-4.10 98.18-3.46L98.18-3.46L98.18-3.46Q97.54-1.28 95.23 0L95.23 0L95.23 0Q92.93 1.28 89.66 1.28L89.66 1.28L89.66 1.28Q86.40 1.28 84.54-0.77L84.54-0.77L84.54-0.77Q82.69-2.82 82.69-6.40ZM136.96-7.10L136.96-7.10L136.96-7.10Q136.96-4.29 139.84-3.46L139.84-3.46L139.84-3.46Q139.14-1.09 136.38 0.19L136.38 0.19L136.38 0.19Q134.08 1.28 131.55 1.28L131.55 1.28L131.55 1.28Q129.02 1.28 127.71 0.61L127.71 0.61L127.71 0.61Q126.40-0.06 125.70-1.15L125.70-1.15L125.70-1.15Q124.54-2.82 124.54-5.95L124.54-5.95L124.54-5.95Q124.54-7.81 125.57-12.93L125.57-12.93L126.46-17.79L126.46-17.79Q127.55-23.36 127.55-25.41L127.55-25.41L127.55-25.41Q127.55-28.99 125.57-28.99L125.57-28.99L125.57-28.99Q123.07-28.99 121.47-25.34L121.47-25.34L121.47-25.34Q120.83-23.94 120.38-21.82L120.38-21.82L116.03 0L103.17 1.28L112.19-44.80L125.06-46.08L124.54-43.52L124.54-43.52Q122.75-33.66 121.22-30.34L121.22-30.34L121.22-30.34Q124.80-33.92 131.39-33.92L131.39-33.92L131.39-33.92Q138.37-33.92 139.65-29.31L139.65-29.31L139.65-29.31Q140.10-27.84 140.10-26.56L140.10-26.56L140.10-26.56Q140.10-25.28 140-24.29L140-24.29L140-24.29Q139.90-23.30 139.58-21.50L139.58-21.50L138.75-16.90L137.28-9.66L137.28-9.66Q136.96-8.19 136.96-7.10ZM165.38-7.23L165.38-7.23L165.38-7.23Q162.05-3.78 155.97-3.78L155.97-3.78L155.97-3.78Q148.35-3.78 146.75-9.34L146.75-9.34L146.75-9.34Q146.24-11.01 146.24-12.86L146.24-12.86L146.24-12.86Q146.24-14.72 146.62-16.64L146.62-16.64L149.63-32.64L162.62-33.92L159.10-15.30L159.10-15.30Q158.98-14.46 158.78-13.57L158.78-13.57L158.78-13.57Q158.59-12.67 158.59-11.74L158.59-11.74L158.59-11.74Q158.59-10.82 158.91-10.21L158.91-10.21L158.91-10.21Q159.23-9.60 159.68-9.22L159.68-9.22L159.68-9.22Q160.45-8.70 161.82-8.70L161.82-8.70L161.82-8.70Q163.20-8.70 164.38-10.37L164.38-10.37L164.38-10.37Q165.57-12.03 166.14-14.91L166.14-14.91L169.66-32.64L182.27-33.92L177.47-8.77L177.47-8.77Q175.10 3.52 170.24 8.38L170.24 8.38L170.24 8.38Q167.74 10.88 164.51 11.87L164.51 11.87L164.51 11.87Q161.28 12.86 157.12 12.86L157.12 12.86L157.12 12.86Q150.40 12.86 146.56 10.75L146.56 10.75L146.56 10.75Q142.72 8.64 142.72 5.12L142.72 5.12L142.72 5.12Q142.72 2.50 144.70 0.99L144.70 0.99L144.70 0.99Q146.69-0.51 149.76-0.51L149.76-0.51L149.76-0.51Q152.45-0.51 154.50 0.64L154.50 0.64L154.50 0.64Q155.71 1.34 156.29 2.24L156.29 2.24L156.29 2.24Q154.82 3.52 154.82 5.63L154.82 5.63L154.82 5.63Q154.82 8.45 157.38 8.45L157.38 8.45L157.38 8.45Q161.60 8.45 164.03-1.28L164.03-1.28L164.03-1.28Q164.74-4.16 165.38-7.23ZM231.17-13.25L231.17-13.25L231.17-13.25Q232.83-12.03 232.83-9.44L232.83-9.44L232.83-9.44Q232.83-6.85 231.71-5.02L231.71-5.02L231.71-5.02Q230.59-3.20 228.42-1.79L228.42-1.79L228.42-1.79Q223.74 1.22 215.58 1.22L215.58 1.22L215.58 1.22Q207.42 1.22 202.98-3.04L202.98-3.04L202.98-3.04Q198.53-7.30 198.53-14.85L198.53-14.85L198.53-14.85Q198.53-25.54 204.10-33.66L204.10-33.66L204.10-33.66Q208.32-39.68 215.87-42.24L215.87-42.24L215.87-42.24Q219.78-43.52 223.62-43.52L223.62-43.52L223.62-43.52Q227.46-43.52 229.82-43.01L229.82-43.01L229.82-43.01Q232.19-42.50 233.98-41.47L233.98-41.47L233.98-41.47Q237.89-39.23 237.89-35.65L237.89-35.65L237.89-35.65Q237.89-32.38 234.82-29.95L234.82-29.95L234.82-29.95Q232.00-27.78 229.70-27.78L229.70-27.78L229.70-27.78Q227.39-27.78 226.43-28.10L226.43-28.10L226.43-28.10Q226.69-30.40 226.69-31.90L226.69-31.90L226.69-31.90Q226.69-33.41 226.62-34.50L226.62-34.50L226.62-34.50Q226.56-35.58 226.24-36.61L226.24-36.61L226.24-36.61Q225.60-38.98 223.65-38.98L223.65-38.98L223.65-38.98Q221.70-38.98 219.74-37.15L219.74-37.15L219.74-37.15Q217.79-35.33 216.13-32.26L216.13-32.26L216.13-32.26Q212.35-25.28 212.35-17.02L212.35-17.02L212.35-17.02Q212.35-13.06 214.59-10.78L214.59-10.78L214.59-10.78Q216.83-8.51 221.63-8.51L221.63-8.51L221.63-8.51Q225.22-8.51 228.61-10.88L228.61-10.88L228.61-10.88Q230.08-11.90 231.17-13.25ZM270.34-7.10L270.34-7.10L270.34-7.10Q270.34-4.29 273.22-3.46L273.22-3.46L273.22-3.46Q272.51-1.09 269.76 0.19L269.76 0.19L269.76 0.19Q267.46 1.28 264.93 1.28L264.93 1.28L264.93 1.28Q262.40 1.28 261.09 0.61L261.09 0.61L261.09 0.61Q259.78-0.06 259.07-1.15L259.07-1.15L259.07-1.15Q257.92-2.82 257.92-5.95L257.92-5.95L257.92-5.95Q257.92-7.81 258.94-12.93L258.94-12.93L259.84-17.79L259.84-17.79Q260.93-23.36 260.93-25.41L260.93-25.41L260.93-25.41Q260.93-28.99 258.94-28.99L258.94-28.99L258.94-28.99Q256.45-28.99 254.85-25.34L254.85-25.34L254.85-25.34Q254.21-23.94 253.76-21.82L253.76-21.82L249.41 0L236.54 1.28L245.57-44.80L258.43-46.08L257.92-43.52L257.92-43.52Q256.13-33.66 254.59-30.34L254.59-30.34L254.59-30.34Q258.18-33.92 264.77-33.92L264.77-33.92L264.77-33.92Q271.74-33.92 273.02-29.31L273.02-29.31L273.02-29.31Q273.47-27.84 273.47-26.56L273.47-26.56L273.47-26.56Q273.47-25.28 273.38-24.29L273.38-24.29L273.38-24.29Q273.28-23.30 272.96-21.50L272.96-21.50L272.13-16.90L270.66-9.66L270.66-9.66Q270.34-8.19 270.34-7.10ZM292.35 1.28L292.35 1.28L292.35 1.28Q278.27 1.28 278.27-11.97L278.27-11.97L278.27-11.97Q278.27-21.38 283.46-27.46L283.46-27.46L283.46-27.46Q288.96-33.92 298.50-33.92L298.50-33.92L298.50-33.92Q305.41-33.92 308.93-30.72L308.93-30.72L308.93-30.72Q312.45-27.52 312.45-20.80L312.45-20.80L312.45-20.80Q312.45-10.56 306.94-4.61L306.94-4.61L306.94-4.61Q301.57 1.28 292.35 1.28ZM294.02-26.56L294.02-26.56L294.02-26.56Q293.25-24.83 292.64-22.24L292.64-22.24L292.64-22.24Q292.03-19.65 291.26-15.55L291.26-15.55L291.26-15.55Q290.50-11.46 290.50-6.40L290.50-6.40L290.50-6.40Q290.50-4.74 291.04-3.65L291.04-3.65L291.04-3.65Q291.58-2.56 293.06-2.56L293.06-2.56L293.06-2.56Q294.53-2.56 295.46-3.26L295.46-3.26L295.46-3.26Q296.38-3.97 297.09-5.63L297.09-5.63L297.09-5.63Q298.37-8.58 299.39-14.05L299.39-14.05L299.39-14.05Q300.42-19.52 300.51-21.89L300.51-21.89L300.51-21.89Q300.61-24.26 300.61-26.02L300.61-26.02L300.61-26.02Q300.61-27.78 300.10-28.93L300.10-28.93L300.10-28.93Q299.58-30.08 298.14-30.08L298.14-30.08L298.14-30.08Q296.70-30.08 295.74-29.18L295.74-29.18L295.74-29.18Q294.78-28.29 294.02-26.56ZM336.58-7.23L336.58-7.23L336.58-7.23Q333.25-3.78 327.17-3.78L327.17-3.78L327.17-3.78Q319.55-3.78 317.95-9.34L317.95-9.34L317.95-9.34Q317.44-11.01 317.44-12.86L317.44-12.86L317.44-12.86Q317.44-14.72 317.82-16.64L317.82-16.64L320.83-32.64L333.82-33.92L330.30-15.30L330.30-15.30Q330.18-14.46 329.98-13.57L329.98-13.57L329.98-13.57Q329.79-12.67 329.79-11.74L329.79-11.74L329.79-11.74Q329.79-10.82 330.11-10.21L330.11-10.21L330.11-10.21Q330.43-9.60 330.88-9.22L330.88-9.22L330.88-9.22Q331.65-8.70 333.02-8.70L333.02-8.70L333.02-8.70Q334.40-8.70 335.58-10.37L335.58-10.37L335.58-10.37Q336.77-12.03 337.34-14.91L337.34-14.91L340.86-32.64L353.47-33.92L348.67-8.77L348.67-8.77Q346.30 3.52 341.44 8.38L341.44 8.38L341.44 8.38Q338.94 10.88 335.71 11.87L335.71 11.87L335.71 11.87Q332.48 12.86 328.32 12.86L328.32 12.86L328.32 12.86Q321.60 12.86 317.76 10.75L317.76 10.75L317.76 10.75Q313.92 8.64 313.92 5.12L313.92 5.12L313.92 5.12Q313.92 2.50 315.90 0.99L315.90 0.99L315.90 0.99Q317.89-0.51 320.96-0.51L320.96-0.51L320.96-0.51Q323.65-0.51 325.70 0.64L325.70 0.64L325.70 0.64Q326.91 1.34 327.49 2.24L327.49 2.24L327.49 2.24Q326.02 3.52 326.02 5.63L326.02 5.63L326.02 5.63Q326.02 8.45 328.58 8.45L328.58 8.45L328.58 8.45Q332.80 8.45 335.23-1.28L335.23-1.28L335.23-1.28Q335.94-4.16 336.58-7.23Z" fill="url(#editing-sticker-gradient)" stroke="#000000" stroke-width="2.5"></path></g></g><style>text {
  font-size: 64px;
  font-family: Arial Black;
  dominant-baseline: central;
  text-anchor: middle;
}</style></svg>